<mxfile host="app.diagrams.net" modified="2021-04-05T04:01:37.381Z" agent="5.0 (Windows NT 10.0; Win64; x64) AppleWebKit/537.36 (KHTML, like Gecko) Chrome/89.0.4389.114 Safari/537.36" etag="3ozKb9PQrN1-LAKzxggp" version="14.5.7" type="github">
  <diagram id="vMNrNYm4kOtcv3P-855k" name="Page-1">
    <mxGraphModel dx="918" dy="969" grid="1" gridSize="10" guides="1" tooltips="1" connect="1" arrows="1" fold="1" page="1" pageScale="1" pageWidth="827" pageHeight="1169" math="0" shadow="0">
      <root>
        <mxCell id="0" />
        <mxCell id="1" parent="0" />
        <mxCell id="o2zq4Pk5KLV8BaDCCl2p-5" style="edgeStyle=orthogonalEdgeStyle;rounded=0;orthogonalLoop=1;jettySize=auto;html=1;exitX=0.5;exitY=1;exitDx=0;exitDy=0;fontSize=20;" edge="1" parent="1" source="o2zq4Pk5KLV8BaDCCl2p-1" target="o2zq4Pk5KLV8BaDCCl2p-2">
          <mxGeometry relative="1" as="geometry" />
        </mxCell>
        <mxCell id="o2zq4Pk5KLV8BaDCCl2p-6" style="edgeStyle=orthogonalEdgeStyle;rounded=0;orthogonalLoop=1;jettySize=auto;html=1;exitX=0.5;exitY=1;exitDx=0;exitDy=0;entryX=0.5;entryY=0;entryDx=0;entryDy=0;fontSize=20;" edge="1" parent="1" source="o2zq4Pk5KLV8BaDCCl2p-1" target="o2zq4Pk5KLV8BaDCCl2p-3">
          <mxGeometry relative="1" as="geometry" />
        </mxCell>
        <mxCell id="o2zq4Pk5KLV8BaDCCl2p-1" value="A" style="rounded=0;whiteSpace=wrap;html=1;fontSize=20;" vertex="1" parent="1">
          <mxGeometry x="280" y="130" width="120" height="60" as="geometry" />
        </mxCell>
        <mxCell id="o2zq4Pk5KLV8BaDCCl2p-2" value="+ : 25&amp;nbsp; -: 0" style="rounded=1;whiteSpace=wrap;html=1;fontSize=20;" vertex="1" parent="1">
          <mxGeometry x="110" y="260" width="120" height="60" as="geometry" />
        </mxCell>
        <mxCell id="o2zq4Pk5KLV8BaDCCl2p-9" style="edgeStyle=orthogonalEdgeStyle;rounded=0;orthogonalLoop=1;jettySize=auto;html=1;exitX=0.5;exitY=1;exitDx=0;exitDy=0;fontSize=20;" edge="1" parent="1" source="o2zq4Pk5KLV8BaDCCl2p-3" target="o2zq4Pk5KLV8BaDCCl2p-4">
          <mxGeometry relative="1" as="geometry" />
        </mxCell>
        <mxCell id="o2zq4Pk5KLV8BaDCCl2p-12" style="edgeStyle=orthogonalEdgeStyle;rounded=0;orthogonalLoop=1;jettySize=auto;html=1;exitX=0.5;exitY=1;exitDx=0;exitDy=0;fontSize=20;" edge="1" parent="1" source="o2zq4Pk5KLV8BaDCCl2p-3" target="o2zq4Pk5KLV8BaDCCl2p-11">
          <mxGeometry relative="1" as="geometry" />
        </mxCell>
        <mxCell id="o2zq4Pk5KLV8BaDCCl2p-3" value="B" style="rounded=1;whiteSpace=wrap;html=1;fontSize=20;" vertex="1" parent="1">
          <mxGeometry x="480" y="260" width="120" height="60" as="geometry" />
        </mxCell>
        <mxCell id="o2zq4Pk5KLV8BaDCCl2p-4" value="C" style="rounded=1;whiteSpace=wrap;html=1;fontSize=20;" vertex="1" parent="1">
          <mxGeometry x="370" y="410" width="120" height="60" as="geometry" />
        </mxCell>
        <mxCell id="o2zq4Pk5KLV8BaDCCl2p-7" value="T" style="text;html=1;align=center;verticalAlign=middle;resizable=0;points=[];autosize=1;fontSize=20;" vertex="1" parent="1">
          <mxGeometry x="235" y="195" width="30" height="30" as="geometry" />
        </mxCell>
        <mxCell id="o2zq4Pk5KLV8BaDCCl2p-8" value="F" style="text;html=1;align=center;verticalAlign=middle;resizable=0;points=[];autosize=1;fontSize=20;" vertex="1" parent="1">
          <mxGeometry x="425" y="195" width="30" height="30" as="geometry" />
        </mxCell>
        <mxCell id="o2zq4Pk5KLV8BaDCCl2p-10" value="T" style="text;html=1;align=center;verticalAlign=middle;resizable=0;points=[];autosize=1;fontSize=20;" vertex="1" parent="1">
          <mxGeometry x="475" y="345" width="30" height="30" as="geometry" />
        </mxCell>
        <mxCell id="o2zq4Pk5KLV8BaDCCl2p-11" value="+ :0&amp;nbsp; -:30" style="rounded=1;whiteSpace=wrap;html=1;fontSize=20;" vertex="1" parent="1">
          <mxGeometry x="620" y="410" width="120" height="60" as="geometry" />
        </mxCell>
      </root>
    </mxGraphModel>
  </diagram>
</mxfile>
